<svg width="464" height="124" viewBox="0 0 464 124" fill="none" xmlns="http://www.w3.org/2000/svg">
<path d="M43.4062 15C43.6771 15.625 44.2292 17.4062 45.0625 20.3438C45.4375 21.6771 45.6354 23.0938 45.6562 24.5938H42.8125C40.8125 21.7604 38.75 19.7292 36.625 18.5C34.5 17.25 32.125 16.625 29.5 16.625C26.2708 16.625 23.6667 17.8854 21.6875 20.4062C19 23.8229 17.6562 28.5833 17.6562 34.6875C17.6562 38.2292 17.8854 40.75 18.3438 42.25C19.0938 44.6875 20.0417 46.6771 21.1875 48.2188C22.0625 49.3854 23.2083 50.3125 24.625 51C26.4583 51.9375 28.4167 52.4062 30.5 52.4062C32.7917 52.4062 35 51.6979 37.125 50.2812C39.2708 48.8438 41.3229 46.7083 43.2812 43.875C44.0521 43.7292 45.0625 43.6458 46.3125 43.625C46.2292 44.4167 46.0938 45.2396 45.9062 46.0938C45.8438 46.4271 45.6042 47.75 45.1875 50.0625L44.9062 51L44.4688 52.4688C43.1979 53.4479 41.4062 54.1875 39.0938 54.6875C36.8021 55.1667 33.9792 55.4062 30.625 55.4062C28.0625 55.4062 25.6354 55.1667 23.3438 54.6875C21.0729 54.2083 19.125 53.4479 17.5 52.4062C15.125 50.9062 13.2604 49.2812 11.9062 47.5312C10.5521 45.7812 9.54167 43.875 8.875 41.8125C8.22917 39.75 7.90625 37.4375 7.90625 34.875C7.90625 28.6667 9.94792 23.5417 14.0312 19.5C18.1354 15.4583 23.3646 13.4375 29.7188 13.4375C32.3021 13.4375 34.7292 13.5729 37 13.8438C39.2917 14.0938 41.4271 14.4792 43.4062 15ZM50.375 54.6875C50.375 54.0625 50.4375 53.3229 50.5625 52.4688L54.4688 51.7812C54.9479 51.6771 55.5208 51.5104 56.1875 51.2812L56.5938 43.4688C56.5104 40.6562 56.4688 38.5521 56.4688 37.1562L56.5 36.4062C56.5625 35.5521 56.5938 33.4062 56.5938 29.9688L56.5312 29.0625L56.5938 26.4375L56.5625 23.7188V22.375C56.5625 21.1667 56.4688 19.75 56.2812 18.125C56.2604 17.9792 56.1771 17.7292 56.0312 17.375C55.8646 17.3125 55.6771 17.2708 55.4688 17.25C55.2812 17.2292 55.0833 17.1979 54.875 17.1562C54.0625 17.0104 53.1979 16.9062 52.2812 16.8438L51.8125 16.7188C51.25 16.6562 50.8229 16.5729 50.5312 16.4688C50.4688 15.8646 50.4375 15.4792 50.4375 15.3125C50.4375 15.0625 50.5 14.7188 50.625 14.2812C51.0417 14.1979 51.625 14.1562 52.375 14.1562C53.125 14.1562 53.6458 14.1458 53.9375 14.125C56.4792 14.3958 58.3646 14.5417 59.5938 14.5625C60.1562 14.5625 60.7188 14.5833 61.2812 14.625C61.8646 14.6458 62.375 14.6562 62.8125 14.6562C63.5 14.6562 65.1771 14.5521 67.8438 14.3438C68.2812 14.2396 68.7604 14.1875 69.2812 14.1875C70.0521 14.1875 70.6979 14.2292 71.2188 14.3125C71.2396 14.75 71.25 15.0625 71.25 15.25C71.25 15.5833 71.2083 15.9896 71.125 16.4688L65.625 17.3438C65.1667 17.5521 64.9375 17.8542 64.9375 18.25L65.0312 19.4062L65.0625 19.9062L65.0312 21.2812L64.9688 22.3438V22.5938C64.9896 22.8229 65 23.0208 65 23.1875L64.9688 27.1562C64.9896 27.5312 65 27.8125 65 28C65 28.1042 64.9792 28.4375 64.9375 29C64.9167 29.3333 64.9062 29.6771 64.9062 30.0312C64.9062 30.3438 64.9375 31.0833 65 32.25C65.5833 32.3542 66.0729 32.4167 66.4688 32.4375L71.0938 32.5312H73.3438L78.9688 32.5625L84.4375 32.4062C85.1458 32.4062 85.8958 32.3333 86.6875 32.1875C86.7292 31.4792 86.7604 29.7396 86.7812 26.9688L86.8438 25.5625L86.6562 20.25L86.4375 18.0625C86.375 17.9167 86.2292 17.7812 86 17.6562C85.2708 17.2396 83.8125 16.7708 81.625 16.25C81.2292 16.1667 80.8542 16.0625 80.5 15.9375C80.5417 15.2083 80.625 14.6146 80.75 14.1562C81.2083 14.1354 81.4896 14.125 81.5938 14.125L84.625 14.1562C86.5625 14.4062 88.5312 14.5312 90.5312 14.5312C90.9896 14.5312 91.3542 14.5208 91.625 14.5L95.6875 14.375C96.0625 14.3542 96.4271 14.3333 96.7812 14.3125C97.5312 14.1458 98.3021 14.0625 99.0938 14.0625C99.6979 14.0625 100.427 14.0938 101.281 14.1562C101.26 14.9688 101.208 15.7083 101.125 16.375C99.2083 16.7708 97.9479 17.0625 97.3438 17.25C96.7604 17.4167 96.1667 17.6562 95.5625 17.9688L95.375 18.5938V19.125L95.4062 19.9375L95.375 20.3438C95.3333 20.7812 95.3125 21.1146 95.3125 21.3438V22.125C95.3333 23.0625 95.3438 23.5833 95.3438 23.6875V27.6562L95.375 30.6562L95.3125 34.625C95.2917 35.5417 95.3229 37.4167 95.4062 40.25V44.6875L95.4688 48.375C95.4688 49.0625 95.4479 49.8958 95.4062 50.875C95.8438 51 96.25 51.1042 96.625 51.1875C98.5833 51.6042 100.062 52.0312 101.062 52.4688L101.156 54.6562C100.323 54.6771 99.8333 54.6875 99.6875 54.6875C98.6875 54.6875 97.5417 54.625 96.25 54.5C94.5417 54.3125 91.7917 54.2188 88 54.2188C86.2917 54.2188 84.0833 54.3542 81.375 54.625C81.0833 54.625 80.7292 54.5625 80.3125 54.4375C80.3333 53.4792 80.3854 52.8021 80.4688 52.4062L82.875 51.8438L85.4062 51.4375C85.6562 51.375 85.9792 51.2812 86.375 51.1562C86.6042 49.4688 86.7292 46.6667 86.75 42.75L86.7812 40.0938C86.6562 38.9896 86.5938 37.6667 86.5938 36.125C85.8229 36.0625 84.9896 36.0208 84.0938 36L69.5938 35.8438L69.3125 35.8125L69.0938 35.7812C68.9479 35.7812 68.7812 35.7917 68.5938 35.8125C68.0521 35.8333 67.5938 35.8438 67.2188 35.8438H66.3438C65.9479 35.8438 65.5 35.9167 65 36.0625L64.875 38.4062V38.8125C64.9167 39.375 64.9375 39.7396 64.9375 39.9062V49.5938C64.9375 50.1354 64.9688 50.6875 65.0312 51.25L65.3438 51.4375L69.9375 52.1562C70.1667 52.2396 70.3438 52.2917 70.4688 52.3125C70.7396 52.375 70.9688 52.4688 71.1562 52.5938C71.2188 53.0729 71.25 53.3958 71.25 53.5625C71.25 53.8333 71.2083 54.2083 71.125 54.6875C70.375 54.7083 69.7396 54.7188 69.2188 54.7188C68.7604 54.7188 68.3333 54.7083 67.9375 54.6875C67.75 54.6875 67.5729 54.6771 67.4062 54.6562L63 54.4688C61.9583 54.3646 60.5 54.3125 58.625 54.3125L57.9688 54.3438C57.0938 54.3854 56.5833 54.4167 56.4375 54.4375C55.1458 54.6042 53.125 54.6875 50.375 54.6875ZM105.031 14.3438C106.219 14.4062 107.25 14.5 108.125 14.625C109.771 14.8542 111.677 14.9688 113.844 14.9688C114.594 14.9688 116.521 14.9062 119.625 14.7812C124.271 14.5938 128.469 14.5 132.219 14.5L137.875 14.4375C139.146 14.4375 141.021 14.5938 143.5 14.9062C143.875 15.3229 144.062 15.8854 144.062 16.5938V23.0312L144.125 24.3125C144.125 24.4375 144.115 24.625 144.094 24.875L142.812 24.9375C142.646 24.9375 142.292 24.9167 141.75 24.875C141.562 24.4583 141.312 23.8438 141 23.0312L139.75 20.8125C139.271 19.875 138.604 18.9167 137.75 17.9375C137.229 17.7917 136.562 17.7083 135.75 17.6875C135.542 17.6667 134.906 17.6146 133.844 17.5312C131.906 17.3646 129.823 17.2812 127.594 17.2812C125.052 17.2812 122.781 17.3229 120.781 17.4062C120.719 17.9271 120.688 19.9792 120.688 23.5625L120.75 28.8125V32.75C121.271 32.8125 121.719 32.8438 122.094 32.8438C125.823 32.8438 128.479 32.7708 130.062 32.625C131.646 32.4792 132.625 32.2812 133 32.0312C133.375 31.7604 133.708 31.3021 134 30.6562C134.188 30.1979 134.552 28.6667 135.094 26.0625L135.5 26.0312L137.312 26.0625C137.396 27.9167 137.438 29.3229 137.438 30.2812C137.438 32.4688 137.417 33.875 137.375 34.5C137.354 35.125 137.344 35.6146 137.344 35.9688C137.344 36.5312 137.375 37.4375 137.438 38.6875C137.5 39.9167 137.531 40.8333 137.531 41.4375V42.125H135.312C135.229 41.7917 135.073 41.1042 134.844 40.0625C134.427 38.125 134.052 36.9167 133.719 36.4375C133.469 36.0625 133.052 35.7812 132.469 35.5938C132.052 35.4479 130.51 35.375 127.844 35.375C124.698 35.375 122.333 35.4583 120.75 35.625C120.729 36.1667 120.719 36.5208 120.719 36.6875C120.719 39.1667 120.76 41.2292 120.844 42.875L120.781 49.625C120.781 50.4167 121.062 50.9583 121.625 51.25C122.479 51.6875 125.094 51.9062 129.469 51.9062C132.365 51.9062 134.823 51.6875 136.844 51.25C138.24 50.9375 139.469 50.2396 140.531 49.1562C141.948 47.7604 143.125 45.8021 144.062 43.2812C144.708 43.2188 145.24 43.1875 145.656 43.1875C145.885 43.1875 146.229 43.1979 146.688 43.2188C146.625 43.7396 146.573 44.1771 146.531 44.5312L146.344 45.4688L145.188 51.375L144.625 54.9375C143.271 55 142.198 55.0312 141.406 55.0312C140.24 55.0312 137.125 54.9271 132.062 54.7188C128.5 54.5729 124.208 54.5 119.188 54.5C116.688 54.5 113.615 54.6042 109.969 54.8125H108.656L104.875 54.9375V52.7812C105.271 52.6771 106.062 52.5625 107.25 52.4375C109.417 52.1875 110.917 51.8542 111.75 51.4375C111.979 50.8333 112.094 50.0729 112.094 49.1562C112.094 48.8021 112.083 48.1979 112.062 47.3438L112.094 46.375L112 34.5938L112.031 31.0625L111.875 26.0625L111.906 22.5312L111.625 18.6562C111.625 18.5521 111.604 18.3438 111.562 18.0312C111.354 17.8021 111.042 17.6562 110.625 17.5938C110.396 17.5521 110.083 17.4896 109.688 17.4062C108.5 17.1562 107.354 17.0104 106.25 16.9688C105.854 16.9479 105.396 16.9062 104.875 16.8438L105.031 14.3438ZM151 55L151.062 52.75C151.521 52.6458 152.281 52.4896 153.344 52.2812C154.406 52.0729 155.469 51.8333 156.531 51.5625L157.125 51.1875C157.333 50.3542 157.438 49.5 157.438 48.625V48.4375L157.312 41.2188L157.344 38.1875L157.219 33.7188L157.281 28.4062L156.906 17.9375C156.594 17.6458 155.583 17.3542 153.875 17.0625C153.458 16.9792 152.854 16.8125 152.062 16.5625L151.312 16.375V14.1875L155.438 14.3438C157.938 14.5938 161.615 14.7188 166.469 14.7188C168.906 14.7188 171.448 14.6562 174.094 14.5312L174.688 14.5L176.219 14.5312L176.844 14.5H178.156L183.75 14.3125C184 14.3125 184.323 14.2917 184.719 14.25C185.135 14.2083 185.521 14.1771 185.875 14.1562C186 14.7812 186.083 15.4062 186.125 16.0312L186.594 21.9062C186.594 22.5312 186.531 23.0104 186.406 23.3438C185.656 23.4479 185.104 23.5 184.75 23.5C184.333 23.5 184 23.4062 183.75 23.2188C183.625 23.0938 183.385 22.625 183.031 21.8125C182.156 19.7083 181.406 18.4688 180.781 18.0938C180.177 17.6979 178.469 17.5 175.656 17.5L171.344 17.625C169.51 17.6458 168.062 17.75 167 17.9375C166.771 17.9792 166.438 18.0833 166 18.25C165.729 18.7292 165.594 19.3438 165.594 20.0938L165.688 23.8125L165.594 28.0625C165.594 30.2292 165.667 31.5625 165.812 32.0625C166 32.1875 166.156 32.2604 166.281 32.2812L168.5 32.3125H172.25C173.083 32.3333 174.365 32.2396 176.094 32.0312C177.281 31.8854 178.01 31.7188 178.281 31.5312C178.781 31.1979 179.135 30.7812 179.344 30.2812C179.573 29.7604 179.74 28.5104 179.844 26.5312C179.948 26.5312 180.229 26.5208 180.688 26.5C180.979 26.4792 181.177 26.4688 181.281 26.4688C181.51 26.4688 181.969 26.5 182.656 26.5625L182.469 31.5625C182.448 32.625 182.406 33.5417 182.344 34.3125L182.406 35C182.427 35.2083 182.438 36.75 182.438 39.625C182.438 39.8125 182.427 40.125 182.406 40.5625C182.01 40.6458 181.698 40.6875 181.469 40.6875C181.302 40.6875 180.896 40.625 180.25 40.5C180.062 40.1042 179.854 39.5312 179.625 38.7812C179.146 37.1354 178.625 36.1771 178.062 35.9062C177.062 35.4062 173.917 35.1562 168.625 35.1562C167.854 35.1562 166.958 35.2292 165.938 35.375C165.792 36.25 165.719 37.2604 165.719 38.4062L165.875 47.7812C165.896 49.5104 166.083 50.5729 166.438 50.9688C166.667 51.2188 167.448 51.4688 168.781 51.7188L169.406 51.7812C170.344 51.8438 171.167 51.9792 171.875 52.1875L172.719 52.375C172.802 52.9167 172.844 53.3333 172.844 53.625C172.844 53.9375 172.812 54.3333 172.75 54.8125L172.156 54.7812L171.188 54.8125L166.75 54.5938C166.25 54.5729 163.917 54.5625 159.75 54.5625C158.604 54.5625 157.51 54.625 156.469 54.75C154.823 54.9375 153.927 55.0312 153.781 55.0312C152.427 55.0312 151.5 55.0208 151 55ZM191 31.75C191.229 31.4167 191.635 31.1042 192.219 30.8125C193.385 30.2083 194.344 29.3958 195.094 28.375C195.844 27.3542 196.219 26.3854 196.219 25.4688C196.219 24.3438 195.656 23.4792 194.531 22.875C192.927 22.0417 191.917 21.3646 191.5 20.8438C190.958 20.1562 190.688 19.3542 190.688 18.4375C190.688 17.25 191.135 16.2292 192.031 15.375C192.927 14.5 194.021 14.0625 195.312 14.0625C196.979 14.0625 198.5 14.8333 199.875 16.375C201.271 17.9167 201.969 19.8333 201.969 22.125C201.969 24.4375 201.385 26.5521 200.219 28.4688C199.052 30.3854 197.49 31.9062 195.531 33.0312C194.26 33.7604 193.271 34.125 192.562 34.125C192.229 34.125 191.938 33.9792 191.688 33.6875C191.375 33.3125 191.146 32.6667 191 31.75ZM230.906 15.25C231.115 15.9583 231.302 17.0312 231.469 18.4688C231.719 20.6146 231.844 22.2812 231.844 23.4688C231.844 23.8438 231.802 24.25 231.719 24.6875L231.406 24.7812L229.156 24.625L228.781 24.5625C227.865 21.8125 226.948 19.9479 226.031 18.9688C224.448 17.3021 222.583 16.4688 220.438 16.4688C218.396 16.4688 216.771 17.0104 215.562 18.0938C214.375 19.1562 213.781 20.4792 213.781 22.0625C213.781 23.3958 214.375 24.6771 215.562 25.9062C216.729 27.1354 219.208 28.3125 223 29.4375C224.271 29.8125 225.802 30.4167 227.594 31.25C229.406 32.0833 230.781 32.9896 231.719 33.9688C232.969 35.2604 233.823 36.5104 234.281 37.7188C234.76 38.9062 235 40.3958 235 42.1875C235 44.1458 234.635 46.0729 233.906 47.9688C233.51 48.9688 232.875 49.9167 232 50.8125C231.375 51.4375 230.406 52.1771 229.094 53.0312C227.781 53.8646 226.417 54.4688 225 54.8438C223.604 55.2188 221.802 55.4062 219.594 55.4062C218.135 55.4062 216.396 55.1979 214.375 54.7812L210.625 53.6875C209.583 53.3958 208.927 53.1354 208.656 52.9062C208.552 52.8229 208.458 52.625 208.375 52.3125V51.9688C208.375 51.7396 208.323 50.3125 208.219 47.6875C208.177 46.3333 208.156 45.375 208.156 44.8125V43.625L211.031 43.5625C212.031 45.875 212.677 47.2708 212.969 47.75C213.615 48.8125 214.323 49.6771 215.094 50.3438C215.885 50.9896 216.823 51.5104 217.906 51.9062C218.99 52.2812 220.167 52.4688 221.438 52.4688C222.562 52.4688 223.802 52.2292 225.156 51.75C226.51 51.2708 227.594 50.4896 228.406 49.4062C229.24 48.3021 229.656 47.125 229.656 45.875C229.656 44.3333 228.938 42.9062 227.5 41.5938C226.625 40.7812 224.271 39.6979 220.438 38.3438C216.604 36.9896 213.948 35.7812 212.469 34.7188C210.99 33.6562 209.823 32.2396 208.969 30.4688C208.115 28.6771 207.688 26.9583 207.688 25.3125C207.688 22 208.875 19.1875 211.25 16.875C213.625 14.5625 217.125 13.4062 221.75 13.4062C222.75 13.4062 224.229 13.5833 226.188 13.9375C227.375 14.1458 228.948 14.5833 230.906 15.25ZM256.531 12.5938H258.469C258.615 12.8229 258.719 12.9896 258.781 13.0938C259.365 14.0938 259.812 14.75 260.125 15.0625C260.396 15.1458 261.823 15.1875 264.406 15.1875C266.01 15.1875 267.438 15.1771 268.688 15.1562L269.312 15.0625L273.094 15.0312L280.156 15.0938H289.812L291.656 14.8125C291.927 14.625 292.219 14.125 292.531 13.3125C292.615 13.125 292.729 12.8646 292.875 12.5312L294.25 12.5C294.458 12.5 294.771 12.5104 295.188 12.5312C295.208 13.9688 295.219 16.1354 295.219 19.0312L295.25 21.8125L295.219 23.4062C295.219 23.9479 295.177 24.4167 295.094 24.8125C294.24 25.0833 293.49 25.25 292.844 25.3125C292.302 24.5 291.708 23.3229 291.062 21.7812C290.438 20.2396 290.042 19.3854 289.875 19.2188C289.625 18.9479 289.333 18.7708 289 18.6875C288.5 18.5833 286.292 18.5312 282.375 18.5312C281.792 18.5312 281.062 18.5729 280.188 18.6562C280.062 19.4688 280 20.1354 280 20.6562L280.031 24.8438V34.0312L280.156 43.9375L280.125 48C280.125 49.4375 280.25 50.5208 280.5 51.25C280.833 51.3958 281.448 51.5312 282.344 51.6562C282.51 51.6771 283.281 51.8438 284.656 52.1562C285.281 52.3021 285.833 52.4688 286.312 52.6562C286.417 53.4062 286.469 53.8646 286.469 54.0312C286.469 54.2188 286.438 54.4896 286.375 54.8438C285.917 54.8646 285.542 54.875 285.25 54.875C283.104 54.875 281.281 54.8021 279.781 54.6562C278.281 54.4896 275.562 54.4062 271.625 54.4062C271 54.4062 269.167 54.5312 266.125 54.7812C264.938 54.8646 264.167 54.9062 263.812 54.9062C263.792 54.5938 263.771 54.3542 263.75 54.1875L263.719 53.4688V53.2188C264.177 52.6146 265.042 52.1667 266.312 51.875C268.479 51.3542 269.979 50.8854 270.812 50.4688C271.021 50.0729 271.146 49.5521 271.188 48.9062C271.333 46.4062 271.406 42.4271 271.406 36.9688L271.25 25.1562C271.25 21.9062 271.188 19.9375 271.062 19.25C271.021 19.0625 270.948 18.9271 270.844 18.8438C270.74 18.7396 270.594 18.6771 270.406 18.6562C269.76 18.5729 267.656 18.5312 264.094 18.5312C262.135 18.5312 260.823 18.7188 260.156 19.0938C259.26 19.6146 257.917 21.0312 256.125 23.3438C255.604 24.0104 255.219 24.3438 254.969 24.3438C254.01 23.8438 253.396 23.4375 253.125 23.125C253.771 21.7708 254.667 19.0625 255.812 15C256.146 13.8125 256.385 13.0104 256.531 12.5938ZM291.625 54.7812L291.688 52.6562C292.083 52.5312 292.781 52.375 293.781 52.1875C295.385 51.875 296.354 51.5938 296.688 51.3438C297.042 51.0938 297.469 50.4896 297.969 49.5312L304.281 33L311.688 13.5625C312.375 13.5833 313.031 13.5938 313.656 13.5938H315.062L315.344 14.1562L320.781 27.0312C322.01 29.7604 323.115 32.4167 324.094 35C325.073 37.5625 325.917 39.6562 326.625 41.2812C327.042 42.2604 327.615 43.7292 328.344 45.6875C328.719 46.75 329.292 48.0833 330.062 49.6875C330.479 50.5625 330.792 51.0729 331 51.2188C331.375 51.5312 331.979 51.7396 332.812 51.8438C333.667 51.9479 334.583 52.1875 335.562 52.5625C335.667 53.25 335.719 53.7604 335.719 54.0938C335.719 54.2396 335.708 54.4688 335.688 54.7812C334.146 54.7812 332.448 54.7083 330.594 54.5625C328.74 54.4167 327.073 54.3438 325.594 54.3438C323.948 54.3438 322.76 54.3646 322.031 54.4062L316.719 54.6875L315.188 54.75C315.188 54.0208 315.219 53.3229 315.281 52.6562L318.75 51.9062C319.792 51.6354 320.396 51.4271 320.562 51.2812C320.771 51.0729 320.875 50.8333 320.875 50.5625C320.875 50.2917 320.823 50.0104 320.719 49.7188L319.469 46.6562L317 40.5312L305.062 40.5C304.625 41.5 303.719 43.9479 302.344 47.8438C301.948 48.9479 301.75 49.6979 301.75 50.0938C301.75 50.6354 301.896 51.0208 302.188 51.25C302.667 51.6458 303.583 51.9271 304.938 52.0938C305.125 52.1354 305.865 52.25 307.156 52.4375C307.177 53.1875 307.188 53.7083 307.188 54C307.188 54.2292 307.167 54.4688 307.125 54.7188C305.833 54.7188 302.75 54.5417 297.875 54.1875L296.594 54.4062C295.052 54.6562 293.583 54.7812 292.188 54.7812H291.625ZM306.312 37.2188C311.188 37.2812 314.062 37.3125 314.938 37.3125L315.719 37.2812C315.094 35.4271 314.281 33.2708 313.281 30.8125C312.281 28.3333 311.469 26.4479 310.844 25.1562L306.312 37.2188ZM336.719 55.0625L336.781 52.5625C337.281 52.4375 337.885 52.3229 338.594 52.2188C339.948 52.0312 341.052 51.7604 341.906 51.4062C342.198 50.9271 342.385 50.4688 342.469 50.0312C342.635 48.8646 342.719 47.1458 342.719 44.875L342.656 31.5938C342.656 30.2188 342.583 26.625 342.438 20.8125C342.396 19.25 342.292 18.2812 342.125 17.9062C342.062 17.7812 341.958 17.6771 341.812 17.5938C341.479 17.3646 340.854 17.2292 339.938 17.1875C339.542 17.1667 338.521 17.0521 336.875 16.8438L336.781 14.625L343.781 14.4688L354 14.125L355.219 14.0938C355.469 14.0729 355.719 14.0625 355.969 14.0625C356.177 14.0625 356.729 14.0729 357.625 14.0938H359.625C361.208 14.0729 362.927 14.3125 364.781 14.8125C365.427 14.9792 366.281 15.3333 367.344 15.875C368.406 16.3958 369.323 17.0729 370.094 17.9062C370.885 18.7188 371.469 19.6354 371.844 20.6562C372.219 21.6771 372.406 22.7604 372.406 23.9062C372.406 25.1771 372.125 26.3229 371.562 27.3438C371 28.3438 370.146 29.2708 369 30.125C368.417 30.5417 367.073 31.2292 364.969 32.1875C368.115 32.8958 370.51 34.1979 372.156 36.0938C373.802 37.9688 374.625 40.0625 374.625 42.375C374.625 43.75 374.365 45.1875 373.844 46.6875C373.469 47.8125 372.833 48.8542 371.938 49.8125C370.75 51.0833 369.49 52.0417 368.156 52.6875C366.844 53.3333 365.021 53.8646 362.688 54.2812C361.521 54.4896 359.75 54.5938 357.375 54.5938L352.062 54.4688C349.812 54.4688 347.135 54.5729 344.031 54.7812C343.156 54.8229 340.719 54.9167 336.719 55.0625ZM351.281 31.3438C352.115 31.4688 353.094 31.5312 354.219 31.5312C357.344 31.5312 359.708 30.9583 361.312 29.8125C362.917 28.6458 363.719 26.6458 363.719 23.8125C363.719 21.8125 362.958 20.1458 361.438 18.8125C359.917 17.4792 357.625 16.8125 354.562 16.8125C353.688 16.8125 352.521 16.9271 351.062 17.1562C351.062 17.6354 351.083 18.3229 351.125 19.2188C351.229 20.9896 351.281 23.4688 351.281 26.6562L351.25 29.2812C351.25 29.7396 351.26 30.4271 351.281 31.3438ZM351.656 51.25C353.01 51.8125 354.271 52.0938 355.438 52.0938C357.812 52.0938 359.75 51.7396 361.25 51.0312C362.75 50.3021 363.844 49.2917 364.531 48C365.219 46.7083 365.562 45.0938 365.562 43.1562C365.562 41.1562 365.188 39.5521 364.438 38.3438C363.396 36.6771 362.135 35.5625 360.656 35C359.177 34.4167 356.958 34.125 354 34.125C352.688 34.125 351.781 34.2188 351.281 34.4062V38.25L351.25 42.875L351.344 50.0625C351.365 50.3958 351.469 50.7917 351.656 51.25ZM379.25 52.2188C379.896 52.0312 380.802 51.8542 381.969 51.6875C383.156 51.5 383.854 51.4062 384.062 51.4062C384.875 51.3854 385.417 51.25 385.688 51C385.812 50.5 385.875 50.0833 385.875 49.75L385.812 45.75L386 41.6875V39.0938L386.031 36.0312L385.969 32.7812L386.094 25.8125L386.125 22.6562V22.2188C385.979 20.0312 385.833 18.8333 385.688 18.625C385.562 18.3958 384.969 18.1146 383.906 17.7812C383.802 17.7396 383.406 17.5833 382.719 17.3125C382.198 17.1042 381.729 16.9583 381.312 16.875C380.583 16.6875 380.073 16.4688 379.781 16.2188C379.74 15.6771 379.719 15.2604 379.719 14.9688C379.719 14.8021 379.729 14.5521 379.75 14.2188C379.938 14.1146 380.135 14.0625 380.344 14.0625C380.844 14.0625 382.656 14.1458 385.781 14.3125L390.25 14.2812L393.562 14.3438C395 14.3438 396.844 14.25 399.094 14.0625C399.76 14 400.146 13.9688 400.25 13.9688C400.562 13.9688 400.781 14.0521 400.906 14.2188C401.073 14.4479 401.156 14.8646 401.156 15.4688C401.156 15.9479 401.042 16.3125 400.812 16.5625C400.688 16.7083 400.229 16.8333 399.438 16.9375L395.562 17.8438C395.458 17.8854 395.281 17.9688 395.031 18.0938C394.948 18.2396 394.885 18.3646 394.844 18.4688L394.812 19.3438L394.719 21.3125V21.875L394.75 22.2188C394.75 22.3229 394.719 22.8958 394.656 23.9375C394.635 24.2083 394.625 24.4792 394.625 24.75C394.625 25.0833 394.646 25.6458 394.688 26.4375C394.75 27.6875 394.781 28.7812 394.781 29.7188C394.781 30.8021 394.75 32.0417 394.688 33.4375C394.667 33.9583 394.656 34.6354 394.656 35.4688L394.531 50.2812C394.531 50.9062 394.635 51.3125 394.844 51.5L397.812 51.625L399.656 51.5938L401.625 51.6562C404.979 51.6562 407.615 51.2708 409.531 50.5C410.969 49.9167 411.906 49.3333 412.344 48.75C413.052 48.125 413.625 47.4479 414.062 46.7188C414.521 45.9896 415.031 44.7812 415.594 43.0938H416.594C417.094 43.0938 417.656 43.1354 418.281 43.2188V44.0938C418.281 45.5938 418.094 48.2188 417.719 51.9688C417.573 53.4688 417.427 54.3854 417.281 54.7188C416.802 54.8021 416.5 54.8438 416.375 54.8438H415.219L413.594 54.875C413.406 54.875 412.167 54.7917 409.875 54.625C409.458 54.6042 407.469 54.5312 403.906 54.4062C400.344 54.2812 396.854 54.2188 393.438 54.2188L387.062 54.4062C384.604 54.4688 382.302 54.5833 380.156 54.75H379.688C379.562 54.75 379.365 54.7396 379.094 54.7188C379.052 54.4896 379.031 54.2917 379.031 54.125C379.031 53.25 379.104 52.6146 379.25 52.2188ZM419.781 14.3438C420.969 14.4062 422 14.5 422.875 14.625C424.521 14.8542 426.427 14.9688 428.594 14.9688C429.344 14.9688 431.271 14.9062 434.375 14.7812C439.021 14.5938 443.219 14.5 446.969 14.5L452.625 14.4375C453.896 14.4375 455.771 14.5938 458.25 14.9062C458.625 15.3229 458.812 15.8854 458.812 16.5938V23.0312L458.875 24.3125C458.875 24.4375 458.865 24.625 458.844 24.875L457.562 24.9375C457.396 24.9375 457.042 24.9167 456.5 24.875C456.312 24.4583 456.062 23.8438 455.75 23.0312L454.5 20.8125C454.021 19.875 453.354 18.9167 452.5 17.9375C451.979 17.7917 451.312 17.7083 450.5 17.6875C450.292 17.6667 449.656 17.6146 448.594 17.5312C446.656 17.3646 444.573 17.2812 442.344 17.2812C439.802 17.2812 437.531 17.3229 435.531 17.4062C435.469 17.9271 435.438 19.9792 435.438 23.5625L435.5 28.8125V32.75C436.021 32.8125 436.469 32.8438 436.844 32.8438C440.573 32.8438 443.229 32.7708 444.812 32.625C446.396 32.4792 447.375 32.2812 447.75 32.0312C448.125 31.7604 448.458 31.3021 448.75 30.6562C448.938 30.1979 449.302 28.6667 449.844 26.0625L450.25 26.0312L452.062 26.0625C452.146 27.9167 452.188 29.3229 452.188 30.2812C452.188 32.4688 452.167 33.875 452.125 34.5C452.104 35.125 452.094 35.6146 452.094 35.9688C452.094 36.5312 452.125 37.4375 452.188 38.6875C452.25 39.9167 452.281 40.8333 452.281 41.4375V42.125H450.062C449.979 41.7917 449.823 41.1042 449.594 40.0625C449.177 38.125 448.802 36.9167 448.469 36.4375C448.219 36.0625 447.802 35.7812 447.219 35.5938C446.802 35.4479 445.26 35.375 442.594 35.375C439.448 35.375 437.083 35.4583 435.5 35.625C435.479 36.1667 435.469 36.5208 435.469 36.6875C435.469 39.1667 435.51 41.2292 435.594 42.875L435.531 49.625C435.531 50.4167 435.812 50.9583 436.375 51.25C437.229 51.6875 439.844 51.9062 444.219 51.9062C447.115 51.9062 449.573 51.6875 451.594 51.25C452.99 50.9375 454.219 50.2396 455.281 49.1562C456.698 47.7604 457.875 45.8021 458.812 43.2812C459.458 43.2188 459.99 43.1875 460.406 43.1875C460.635 43.1875 460.979 43.1979 461.438 43.2188C461.375 43.7396 461.323 44.1771 461.281 44.5312L461.094 45.4688L459.938 51.375L459.375 54.9375C458.021 55 456.948 55.0312 456.156 55.0312C454.99 55.0312 451.875 54.9271 446.812 54.7188C443.25 54.5729 438.958 54.5 433.938 54.5C431.438 54.5 428.365 54.6042 424.719 54.8125H423.406L419.625 54.9375V52.7812C420.021 52.6771 420.812 52.5625 422 52.4375C424.167 52.1875 425.667 51.8542 426.5 51.4375C426.729 50.8333 426.844 50.0729 426.844 49.1562C426.844 48.8021 426.833 48.1979 426.812 47.3438L426.844 46.375L426.75 34.5938L426.781 31.0625L426.625 26.0625L426.656 22.5312L426.375 18.6562C426.375 18.5521 426.354 18.3438 426.312 18.0312C426.104 17.8021 425.792 17.6562 425.375 17.5938C425.146 17.5521 424.833 17.4896 424.438 17.4062C423.25 17.1562 422.104 17.0104 421 16.9688C420.604 16.9479 420.146 16.9062 419.625 16.8438L419.781 14.3438Z" fill="white"/>
<path d="M49.8125 93.9688L52.8438 94.7344C52.2083 97.224 51.0625 99.125 49.4062 100.438C47.7604 101.74 45.7448 102.391 43.3594 102.391C40.8906 102.391 38.8802 101.891 37.3281 100.891C35.7865 99.8802 34.6094 98.4219 33.7969 96.5156C32.9948 94.6094 32.5938 92.5625 32.5938 90.375C32.5938 87.9896 33.0469 85.9115 33.9531 84.1406C34.8698 82.3594 36.1667 81.0104 37.8438 80.0938C39.5312 79.1667 41.3854 78.7031 43.4062 78.7031C45.6979 78.7031 47.625 79.2865 49.1875 80.4531C50.75 81.6198 51.8385 83.2604 52.4531 85.375L49.4688 86.0781C48.9375 84.4115 48.1667 83.1979 47.1562 82.4375C46.1458 81.6771 44.875 81.2969 43.3438 81.2969C41.5833 81.2969 40.1094 81.7188 38.9219 82.5625C37.7448 83.4062 36.9167 84.5417 36.4375 85.9688C35.9583 87.3854 35.7188 88.849 35.7188 90.3594C35.7188 92.3073 36 94.0104 36.5625 95.4688C37.1354 96.9167 38.0208 98 39.2188 98.7188C40.4167 99.4375 41.7135 99.7969 43.1094 99.7969C44.8073 99.7969 46.2448 99.3073 47.4219 98.3281C48.599 97.349 49.3958 95.8958 49.8125 93.9688ZM59.9919 90.8438C59.9919 87.0417 61.0127 84.0677 63.0544 81.9219C65.096 79.7656 67.7315 78.6875 70.9606 78.6875C73.0752 78.6875 74.9815 79.1927 76.6794 80.2031C78.3773 81.2135 79.669 82.625 80.5544 84.4375C81.4502 86.2396 81.8981 88.2865 81.8981 90.5781C81.8981 92.901 81.4294 94.9792 80.4919 96.8125C79.5544 98.6458 78.2262 100.036 76.5075 100.984C74.7887 101.922 72.9346 102.391 70.945 102.391C68.7887 102.391 66.8617 101.87 65.1637 100.828C63.4658 99.7865 62.1794 98.3646 61.3044 96.5625C60.4294 94.7604 59.9919 92.8542 59.9919 90.8438ZM63.1169 90.8906C63.1169 93.651 63.8565 95.8281 65.3356 97.4219C66.8252 99.0052 68.6898 99.7969 70.9294 99.7969C73.2106 99.7969 75.0856 98.9948 76.5544 97.3906C78.0335 95.7865 78.7731 93.5104 78.7731 90.5625C78.7731 88.6979 78.4554 87.0729 77.82 85.6875C77.195 84.2917 76.2731 83.2135 75.0544 82.4531C73.846 81.6823 72.4867 81.2969 70.9762 81.2969C68.8304 81.2969 66.9815 82.0365 65.4294 83.5156C63.8877 84.9844 63.1169 87.4427 63.1169 90.8906ZM89.2181 90.8438C89.2181 87.0417 90.239 84.0677 92.2806 81.9219C94.3223 79.7656 96.9577 78.6875 100.187 78.6875C102.301 78.6875 104.208 79.1927 105.906 80.2031C107.604 81.2135 108.895 82.625 109.781 84.4375C110.676 86.2396 111.124 88.2865 111.124 90.5781C111.124 92.901 110.656 94.9792 109.718 96.8125C108.781 98.6458 107.452 100.036 105.734 100.984C104.015 101.922 102.161 102.391 100.171 102.391C98.015 102.391 96.0879 101.87 94.39 100.828C92.6921 99.7865 91.4056 98.3646 90.5306 96.5625C89.6556 94.7604 89.2181 92.8542 89.2181 90.8438ZM92.3431 90.8906C92.3431 93.651 93.0827 95.8281 94.5619 97.4219C96.0515 99.0052 97.916 99.7969 100.156 99.7969C102.437 99.7969 104.312 98.9948 105.781 97.3906C107.26 95.7865 107.999 93.5104 107.999 90.5625C107.999 88.6979 107.682 87.0729 107.046 85.6875C106.421 84.2917 105.499 83.2135 104.281 82.4531C103.072 81.6823 101.713 81.2969 100.202 81.2969C98.0567 81.2969 96.2077 82.0365 94.6556 83.5156C93.114 84.9844 92.3431 87.4427 92.3431 90.8906ZM119.241 102V79.0938H122.272V90.4531L133.647 79.0938H137.757L128.147 88.375L138.179 102H134.179L126.022 90.4062L122.272 94.0625V102H119.241ZM145.546 102V79.0938H148.577V102H145.546ZM158.225 102V79.0938H161.334L173.366 97.0781V79.0938H176.272V102H173.162L161.131 84V102H158.225ZM196.42 93.0156V90.3281L206.123 90.3125V98.8125C204.634 100 203.097 100.896 201.514 101.5C199.93 102.094 198.305 102.391 196.639 102.391C194.389 102.391 192.342 101.911 190.498 100.953C188.665 99.9844 187.279 98.5885 186.342 96.7656C185.404 94.9427 184.936 92.9062 184.936 90.6562C184.936 88.4271 185.399 86.349 186.326 84.4219C187.264 82.4844 188.607 81.0469 190.357 80.1094C192.107 79.1719 194.123 78.7031 196.404 78.7031C198.061 78.7031 199.555 78.974 200.889 79.5156C202.232 80.0469 203.285 80.7917 204.045 81.75C204.805 82.7083 205.384 83.9583 205.779 85.5L203.045 86.25C202.701 85.0833 202.274 84.1667 201.764 83.5C201.253 82.8333 200.524 82.3021 199.576 81.9062C198.628 81.5 197.576 81.2969 196.42 81.2969C195.035 81.2969 193.837 81.5104 192.826 81.9375C191.816 82.3542 190.998 82.9062 190.373 83.5938C189.759 84.2812 189.279 85.0365 188.936 85.8594C188.352 87.276 188.061 88.8125 188.061 90.4688C188.061 92.5104 188.41 94.2188 189.107 95.5938C189.816 96.9688 190.842 97.9896 192.186 98.6562C193.529 99.3229 194.956 99.6562 196.467 99.6562C197.779 99.6562 199.061 99.4062 200.311 98.9062C201.561 98.3958 202.509 97.8542 203.154 97.2812V93.0156H196.42ZM232.154 102L226.076 79.0938H229.185L232.669 94.1094C233.044 95.6823 233.367 97.2448 233.638 98.7969C234.221 96.349 234.565 94.9375 234.669 94.5625L239.029 79.0938H242.685L245.966 90.6875C246.789 93.5625 247.383 96.2656 247.747 98.7969C248.039 97.349 248.419 95.6875 248.888 93.8125L252.482 79.0938H255.529L249.247 102H246.326L241.497 84.5469C241.091 83.0885 240.852 82.1927 240.779 81.8594C240.539 82.9115 240.315 83.8073 240.107 84.5469L235.247 102H232.154ZM263.208 102V79.0938H266.239V102H263.208ZM281.747 102V81.7969H274.2V79.0938H292.356V81.7969H284.778V102H281.747ZM299.895 102V79.0938H302.926V88.5H314.832V79.0938H317.864V102H314.832V91.2031H302.926V102H299.895ZM340.348 102V79.0938H343.379V99.2969H354.66V102H340.348ZM361.683 90.8438C361.683 87.0417 362.704 84.0677 364.746 81.9219C366.787 79.7656 369.423 78.6875 372.652 78.6875C374.766 78.6875 376.673 79.1927 378.371 80.2031C380.069 81.2135 381.36 82.625 382.246 84.4375C383.141 86.2396 383.589 88.2865 383.589 90.5781C383.589 92.901 383.121 94.9792 382.183 96.8125C381.246 98.6458 379.918 100.036 378.199 100.984C376.48 101.922 374.626 102.391 372.636 102.391C370.48 102.391 368.553 101.87 366.855 100.828C365.157 99.7865 363.871 98.3646 362.996 96.5625C362.121 94.7604 361.683 92.8542 361.683 90.8438ZM364.808 90.8906C364.808 93.651 365.548 95.8281 367.027 97.4219C368.516 99.0052 370.381 99.7969 372.621 99.7969C374.902 99.7969 376.777 98.9948 378.246 97.3906C379.725 95.7865 380.464 93.5104 380.464 90.5625C380.464 88.6979 380.147 87.0729 379.511 85.6875C378.886 84.2917 377.964 83.2135 376.746 82.4531C375.537 81.6823 374.178 81.2969 372.668 81.2969C370.522 81.2969 368.673 82.0365 367.121 83.5156C365.579 84.9844 364.808 87.4427 364.808 90.8906ZM398.378 102L389.503 79.0938H392.784L398.737 95.7344C399.217 97.0677 399.618 98.3177 399.941 99.4844C400.295 98.2344 400.706 96.9844 401.175 95.7344L407.362 79.0938H410.456L401.487 102H398.378ZM417.557 102V79.0938H434.12V81.7969H420.589V88.8125H433.261V91.5H420.589V99.2969H434.651V102H417.557Z" fill="url(#paint0_radial_128_2282)"/>
<rect y="120" width="459" height="4" fill="white"/>
<defs>
<radialGradient id="paint0_radial_128_2282" cx="0" cy="0" r="1" gradientUnits="userSpaceOnUse" gradientTransform="translate(234 90.5) rotate(90) scale(18.5 375.64)">
<stop stop-color="#FAD9A7"/>
<stop offset="1" stop-color="#FA9800" stop-opacity="0"/>
</radialGradient>
</defs>
</svg>
