<svg width="462" height="123" viewBox="0 0 462 123" fill="none" xmlns="http://www.w3.org/2000/svg">
<path d="M43.219 14.879C43.4887 15.499 44.0385 17.2658 44.8682 20.1797C45.2415 21.5023 45.4386 22.9075 45.4593 24.3954H42.6279C40.6365 21.5849 38.5829 19.5701 36.467 18.3508C34.3512 17.1109 31.9864 16.4909 29.3727 16.4909C26.1575 16.4909 23.5646 17.7411 21.5939 20.2416C18.918 23.6308 17.58 28.3528 17.58 34.4077C17.58 37.9209 17.8082 40.4213 18.2646 41.9093C19.0114 44.3271 19.9552 46.3007 21.0961 47.8299C21.9673 48.9871 23.1082 49.9067 24.5188 50.5887C26.3442 51.5186 28.2941 51.9835 30.3684 51.9835C32.6503 51.9835 34.849 51.281 36.9649 49.8757C39.1014 48.4499 41.1447 46.3316 43.0945 43.5211C43.8621 43.3765 44.8682 43.2938 46.1128 43.2732C46.0298 44.0585 45.895 44.8747 45.7082 45.7221C45.6461 46.0527 45.4075 47.3649 44.9926 49.6587L44.7125 50.5887L44.277 52.0456C43.0116 53.0168 41.2276 53.7505 38.9252 54.2465C36.6434 54.7218 33.8326 54.9594 30.4929 54.9594C27.9414 54.9594 25.5248 54.7218 23.2431 54.2465C20.982 53.7711 19.0425 53.0168 17.4245 51.9835C15.0597 50.4956 13.2031 48.8838 11.8548 47.1479C10.5065 45.412 9.50044 43.5211 8.83664 41.4753C8.1936 39.4294 7.87207 37.1356 7.87207 34.5937C7.87207 28.4355 9.90494 23.3518 13.9706 19.3427C18.0571 15.3336 23.2638 13.3291 29.5906 13.3291C32.1628 13.3291 34.5794 13.4634 36.8404 13.7321C39.1222 13.9801 41.2484 14.3624 43.219 14.879ZM50.1578 54.2465C50.1578 53.6265 50.22 52.8929 50.3445 52.0456L54.2339 51.3636C54.711 51.2603 55.2814 51.095 55.9452 50.8676L56.3498 43.1182C56.2667 40.3283 56.2253 38.2412 56.2253 36.8565L56.2564 36.1126C56.3186 35.2654 56.3498 33.1368 56.3498 29.7271L56.2874 28.8281L56.3498 26.2243L56.3186 23.5275V22.1945C56.3186 20.996 56.2253 19.5907 56.0385 17.9788C56.0178 17.8342 55.9349 17.5862 55.7896 17.2349C55.6237 17.1729 55.437 17.1315 55.2296 17.1109C55.0428 17.0902 54.8458 17.0592 54.6384 17.0178C53.8294 16.8732 52.9685 16.7698 52.0557 16.7079L51.5891 16.5839C51.029 16.5219 50.6037 16.4392 50.3133 16.336C50.2512 15.7366 50.22 15.3543 50.22 15.189C50.22 14.941 50.2822 14.6001 50.4067 14.166C50.8216 14.0834 51.4024 14.042 52.1491 14.042C52.8959 14.042 53.4145 14.0317 53.7049 14.0111C56.2357 14.2797 58.1129 14.4244 59.3368 14.445C59.8968 14.445 60.457 14.4657 61.017 14.507C61.5978 14.5277 62.106 14.538 62.5417 14.538C63.2262 14.538 64.8961 14.4347 67.5513 14.2281C67.9868 14.1247 68.4639 14.0731 68.9825 14.0731C69.75 14.0731 70.3931 14.1144 70.9117 14.1971C70.9324 14.631 70.9428 14.941 70.9428 15.127C70.9428 15.4576 70.9013 15.8606 70.8183 16.336L65.342 17.2039C64.8857 17.4105 64.6575 17.7102 64.6575 18.1028L64.7508 19.2497L64.782 19.7456L64.7508 21.1096L64.6887 22.1636V22.4116C64.7094 22.6388 64.7197 22.8351 64.7197 23.0005L64.6887 26.9372C64.7094 27.3092 64.7197 27.5882 64.7197 27.7742C64.7197 27.8775 64.699 28.2081 64.6575 28.7661C64.6368 29.0967 64.6263 29.4377 64.6263 29.789C64.6263 30.0991 64.6575 30.8326 64.7197 31.9899C65.3005 32.0933 65.788 32.1553 66.1822 32.1759L70.7873 32.2688H73.0276L78.6283 32.2999L84.0734 32.1448C84.7787 32.1448 85.5255 32.0725 86.3137 31.9279C86.3553 31.2253 86.3863 29.4997 86.407 26.7513L86.4694 25.3563L86.2826 20.0867L86.0648 17.9168C86.0026 17.7722 85.8574 17.6378 85.6292 17.5138C84.9032 17.1005 83.4511 16.6355 81.2731 16.1189C80.879 16.0363 80.5056 15.9329 80.1529 15.8089C80.1944 15.0856 80.2774 14.4967 80.4018 14.042C80.8582 14.0214 81.1383 14.0111 81.242 14.0111L84.2601 14.042C86.1893 14.29 88.1495 14.414 90.1409 14.414C90.5973 14.414 90.9603 14.4037 91.23 14.383L95.275 14.259C95.6483 14.2384 96.0114 14.2177 96.3639 14.1971C97.1107 14.0317 97.8783 13.9491 98.6666 13.9491C99.2681 13.9491 99.994 13.9801 100.844 14.042C100.823 14.8481 100.772 15.5816 100.689 16.2429C98.7806 16.6355 97.5256 16.9249 96.9241 17.1109C96.3432 17.2762 95.7521 17.5138 95.1505 17.8239L94.9638 18.4438V18.9707L94.9949 19.7767L94.9638 20.1797C94.9223 20.6136 94.9016 20.9443 94.9016 21.1716V21.9465C94.9223 22.8765 94.9327 23.3931 94.9327 23.4964V27.4331L94.9638 30.409L94.9016 34.3457C94.8809 35.2551 94.9119 37.1149 94.9949 39.9254V44.3271L95.0572 47.9849C95.0572 48.6668 95.0364 49.4934 94.9949 50.4647C95.4306 50.5887 95.835 50.692 96.2084 50.7747C98.1583 51.188 99.6306 51.6116 100.626 52.0456L100.72 54.2154C99.8905 54.2361 99.4029 54.2465 99.2577 54.2465C98.262 54.2465 97.1212 54.1845 95.835 54.0605C94.1341 53.8745 91.3959 53.7815 87.6206 53.7815C85.9197 53.7815 83.7208 53.9158 81.0241 54.1845C80.7337 54.1845 80.3811 54.1225 79.9662 53.9985C79.9869 53.0479 80.0388 52.3763 80.1219 51.9835L82.5177 51.4257L85.038 51.0227C85.2869 50.9607 85.6085 50.8676 86.0026 50.7436C86.2308 49.0698 86.3553 46.2903 86.376 42.4052L86.407 39.7704C86.2826 38.6751 86.2205 37.3629 86.2205 35.8336C85.4529 35.7717 84.6232 35.7303 83.7312 35.7097L69.2937 35.5547L69.0136 35.5237L68.7959 35.4926C68.6506 35.4926 68.4846 35.503 68.298 35.5237C67.7587 35.5443 67.3023 35.5547 66.929 35.5547H66.0577C65.6635 35.5547 65.2176 35.627 64.7197 35.7717L64.5953 38.0965V38.4995C64.6368 39.0574 64.6575 39.4191 64.6575 39.5844V49.1938C64.6575 49.7311 64.6887 50.2787 64.7508 50.8367L65.062 51.0227L69.6359 51.7356C69.8642 51.8183 70.0405 51.87 70.165 51.8906C70.4346 51.9526 70.6628 52.0456 70.8494 52.1696C70.9117 52.6449 70.9428 52.9652 70.9428 53.1305C70.9428 53.3991 70.9013 53.7711 70.8183 54.2465C70.0716 54.2671 69.4389 54.2775 68.9203 54.2775C68.4639 54.2775 68.0387 54.2671 67.6446 54.2465C67.4579 54.2465 67.2815 54.2361 67.1156 54.2154L62.7283 54.0295C61.6911 53.9262 60.2391 53.8745 58.3722 53.8745L57.7188 53.9055C56.8476 53.9468 56.3393 53.9778 56.1941 53.9985C54.908 54.1638 52.8959 54.2465 50.1578 54.2465ZM104.578 14.2281C105.761 14.29 106.788 14.383 107.659 14.507C109.298 14.7344 111.196 14.8481 113.353 14.8481C114.1 14.8481 116.019 14.786 119.109 14.662C123.735 14.4761 127.915 14.383 131.649 14.383L137.281 14.321C138.546 14.321 140.413 14.4761 142.881 14.786C143.255 15.1993 143.441 15.7573 143.441 16.46V22.8454L143.504 24.1164C143.504 24.2404 143.494 24.4264 143.473 24.6744L142.196 24.7364C142.031 24.7364 141.679 24.7157 141.139 24.6744C140.952 24.261 140.703 23.6515 140.392 22.8454L139.148 20.6446C138.671 19.7147 138.006 18.7641 137.156 17.7928C136.637 17.6482 135.973 17.5655 135.165 17.5448C134.958 17.5242 134.324 17.4725 133.267 17.3898C131.337 17.2245 129.263 17.1418 127.044 17.1418C124.513 17.1418 122.252 17.1832 120.26 17.2658C120.199 17.7825 120.168 19.8181 120.168 23.3725L120.229 28.5801V32.4859C120.748 32.5479 121.194 32.5789 121.568 32.5789C125.281 32.5789 127.925 32.5065 129.501 32.3619C131.078 32.2172 132.053 32.0208 132.427 31.7729C132.8 31.5042 133.132 31.0496 133.422 30.409C133.609 29.9543 133.972 28.4355 134.512 25.8523L134.916 25.8212L136.72 25.8523C136.804 27.6915 136.845 29.0864 136.845 30.037C136.845 32.2069 136.825 33.6018 136.783 34.2218C136.762 34.8417 136.752 35.3274 136.752 35.6787C136.752 36.2366 136.783 37.1356 136.845 38.3755C136.907 39.5948 136.938 40.504 136.938 41.1033V41.7853H134.729C134.646 41.4546 134.491 40.7727 134.263 39.7394C133.847 37.8175 133.474 36.619 133.143 36.1436C132.894 35.7717 132.478 35.4926 131.898 35.3067C131.483 35.162 129.947 35.0897 127.293 35.0897C124.16 35.0897 121.806 35.1723 120.229 35.3377C120.209 35.875 120.199 36.2263 120.199 36.3916C120.199 38.8508 120.239 40.8967 120.323 42.5292L120.26 49.2248C120.26 50.0101 120.54 50.5473 121.101 50.8367C121.951 51.2706 124.555 51.4876 128.911 51.4876C131.794 51.4876 134.242 51.2706 136.254 50.8367C137.644 50.5267 138.868 49.8344 139.925 48.7598C141.336 47.3752 142.508 45.4327 143.441 42.9321C144.084 42.8702 144.614 42.8392 145.028 42.8392C145.256 42.8392 145.599 42.8495 146.056 42.8702C145.993 43.3868 145.941 43.8208 145.899 44.1721L145.713 45.1021L144.562 50.9607L144.002 54.4944C142.653 54.5564 141.585 54.5874 140.796 54.5874C139.635 54.5874 136.534 54.4841 131.493 54.2775C127.946 54.1328 123.673 54.0605 118.674 54.0605C116.185 54.0605 113.125 54.1638 109.495 54.3704H108.188L104.423 54.4944V52.3555C104.817 52.2523 105.605 52.1386 106.788 52.0146C108.945 51.7666 110.439 51.436 111.268 51.0227C111.496 50.4233 111.611 49.6691 111.611 48.7598C111.611 48.4085 111.6 47.8092 111.579 46.962L111.611 46.001L111.517 34.3148L111.548 30.812L111.393 25.8523L111.424 22.3495L111.144 18.5057C111.144 18.4025 111.123 18.1958 111.081 17.8858C110.874 17.6585 110.563 17.5138 110.148 17.4519C109.92 17.4105 109.608 17.3485 109.215 17.2658C108.032 17.0178 106.891 16.8732 105.792 16.8319C105.398 16.8112 104.942 16.7698 104.423 16.7079L104.578 14.2281ZM150.349 54.5564L150.411 52.3246C150.868 52.2212 151.625 52.0663 152.683 51.8596C153.74 51.6529 154.799 51.4153 155.856 51.1467L156.448 50.7747C156.655 49.9481 156.759 49.1008 156.759 48.2328V48.0469L156.634 40.8864L156.666 37.8795L156.541 33.4469L156.603 28.1771L156.23 17.7928C155.919 17.5035 154.912 17.2142 153.212 16.9249C152.796 16.8422 152.195 16.6769 151.406 16.4289L150.66 16.2429V14.0731L154.768 14.2281C157.257 14.4761 160.918 14.6001 165.751 14.6001C168.178 14.6001 170.709 14.538 173.343 14.414L173.935 14.383L175.459 14.414L176.082 14.383H177.388L182.958 14.1971C183.207 14.1971 183.528 14.1764 183.923 14.1351C184.337 14.0937 184.721 14.0627 185.074 14.042C185.198 14.662 185.281 15.2819 185.323 15.9019L185.79 21.7295C185.79 22.3495 185.727 22.8248 185.602 23.1555C184.856 23.2588 184.306 23.3105 183.954 23.3105C183.538 23.3105 183.207 23.2174 182.958 23.0315C182.833 22.9075 182.594 22.4425 182.242 21.6366C181.371 19.5493 180.624 18.3198 180.002 17.9479C179.4 17.5552 177.7 17.3588 174.899 17.3588L170.605 17.4828C168.779 17.5035 167.337 17.6068 166.28 17.7928C166.052 17.8342 165.72 17.9374 165.284 18.1028C165.015 18.5781 164.88 19.1878 164.88 19.9317L164.974 23.6204L164.88 27.8362C164.88 29.9854 164.953 31.3079 165.097 31.8039C165.284 31.9279 165.44 32.0002 165.564 32.0208L167.774 32.0519H171.507C172.337 32.0725 173.613 31.9796 175.335 31.7729C176.517 31.6282 177.243 31.463 177.512 31.2769C178.01 30.9463 178.363 30.5329 178.571 30.037C178.799 29.5204 178.965 28.2805 179.069 26.3172C179.172 26.3172 179.452 26.3069 179.909 26.2863C180.199 26.2656 180.396 26.2553 180.5 26.2553C180.728 26.2553 181.185 26.2863 181.869 26.3483L181.682 31.3079C181.661 32.3619 181.62 33.2712 181.558 34.0358L181.62 34.7177C181.641 34.9243 181.652 36.4536 181.652 39.3054C181.652 39.4914 181.641 39.8014 181.62 40.2354C181.225 40.318 180.915 40.3594 180.687 40.3594C180.52 40.3594 180.116 40.2974 179.473 40.1734C179.286 39.7808 179.079 39.2124 178.851 38.4684C178.374 36.8359 177.855 35.8853 177.294 35.6166C176.299 35.1206 173.167 34.8727 167.898 34.8727C167.13 34.8727 166.238 34.9451 165.223 35.0897C165.077 35.9576 165.005 36.9599 165.005 38.0965L165.16 47.3958C165.181 49.1111 165.367 50.165 165.72 50.5577C165.949 50.8057 166.726 51.0537 168.053 51.3017L168.676 51.3636C169.61 51.4257 170.429 51.56 171.134 51.7666L171.974 51.9526C172.057 52.4899 172.099 52.9032 172.099 53.1925C172.099 53.5025 172.067 53.8951 172.005 54.3704L171.414 54.3394L170.45 54.3704L166.031 54.1535C165.533 54.1328 163.21 54.1225 159.061 54.1225C157.92 54.1225 156.831 54.1845 155.794 54.3084C154.156 54.4944 153.263 54.5874 153.118 54.5874C151.77 54.5874 150.847 54.5771 150.349 54.5564ZM190.177 31.4939C190.405 31.1633 190.809 30.8533 191.39 30.564C192.551 29.9647 193.506 29.1587 194.253 28.1461C195 27.1336 195.373 26.1726 195.373 25.2634C195.373 24.1475 194.813 23.2898 193.692 22.6905C192.095 21.8639 191.09 21.1923 190.674 20.6757C190.135 19.9936 189.866 19.1981 189.866 18.2888C189.866 17.1109 190.311 16.0983 191.203 15.251C192.095 14.383 193.185 13.9491 194.47 13.9491C196.13 13.9491 197.644 14.7137 199.013 16.2429C200.403 17.7722 201.098 19.6733 201.098 21.9465C201.098 24.2404 200.517 26.3379 199.356 28.2392C198.194 30.1403 196.639 31.6489 194.688 32.7648C193.423 33.4881 192.438 33.8498 191.732 33.8498C191.4 33.8498 191.111 33.7052 190.862 33.4158C190.55 33.0438 190.322 32.4032 190.177 31.4939ZM229.911 15.127C230.119 15.8296 230.305 16.8938 230.471 18.3198C230.72 20.4483 230.845 22.1015 230.845 23.2795C230.845 23.6515 230.803 24.0544 230.72 24.4884L230.408 24.5813L228.168 24.4264L227.795 24.3644C226.883 21.6366 225.97 19.787 225.057 18.8158C223.48 17.1625 221.623 16.336 219.488 16.336C217.455 16.336 215.837 16.8732 214.633 17.9479C213.451 19.0017 212.859 20.314 212.859 21.8846C212.859 23.2071 213.451 24.4781 214.633 25.6973C215.795 26.9165 218.263 28.0842 222.039 29.2001C223.304 29.5721 224.829 30.1714 226.613 30.998C228.417 31.8245 229.786 32.7235 230.72 33.6948C231.965 34.976 232.815 36.2159 233.271 37.4146C233.748 38.5924 233.987 40.07 233.987 41.8473C233.987 43.7898 233.624 45.7013 232.898 47.5819C232.503 48.5739 231.871 49.5141 231 50.4027C230.378 51.0227 229.413 51.7563 228.106 52.6035C226.799 53.4302 225.441 54.0295 224.03 54.4015C222.64 54.7735 220.846 54.9594 218.647 54.9594C217.195 54.9594 215.463 54.7527 213.451 54.3394L209.717 53.2545C208.68 52.9652 208.026 52.7069 207.757 52.4795C207.653 52.3969 207.559 52.2006 207.477 51.8906V51.5497C207.477 51.3223 207.425 49.9067 207.321 47.3029C207.28 45.9596 207.259 45.0091 207.259 44.4511V43.2732L210.121 43.2112C211.117 45.505 211.76 46.8896 212.051 47.3649C212.694 48.4188 213.399 49.2765 214.167 49.9378C214.954 50.5784 215.888 51.095 216.967 51.4876C218.046 51.8596 219.218 52.0456 220.483 52.0456C221.603 52.0456 222.837 51.808 224.185 51.3326C225.534 50.8573 226.613 50.0824 227.421 49.0077C228.252 47.9125 228.666 46.7449 228.666 45.505C228.666 43.9758 227.951 42.5602 226.519 41.2583C225.648 40.4523 223.304 39.3777 219.488 38.0346C215.67 36.6913 213.026 35.4926 211.553 34.4388C210.08 33.3848 208.918 31.9796 208.068 30.2231C207.218 28.4458 206.793 26.7409 206.793 25.1083C206.793 21.8226 207.975 19.0327 210.339 16.7389C212.704 14.445 216.189 13.2981 220.794 13.2981C221.79 13.2981 223.262 13.4737 225.213 13.8251C226.395 14.0317 227.961 14.4657 229.911 15.127ZM255.425 12.4922H257.355C257.5 12.7195 257.604 12.8848 257.665 12.9882C258.247 13.9801 258.692 14.631 259.004 14.941C259.273 15.0236 260.694 15.065 263.266 15.065C264.863 15.065 266.285 15.0547 267.53 15.0339L268.151 14.941L271.917 14.91L278.948 14.9721H288.563L290.399 14.693C290.669 14.507 290.959 14.0111 291.27 13.2051C291.354 13.0191 291.467 12.7608 291.612 12.4301L292.982 12.3992C293.189 12.3992 293.5 12.4095 293.916 12.4301C293.935 13.8561 293.946 16.0053 293.946 18.8777L293.977 21.6366L293.946 23.2174C293.946 23.7547 293.905 24.2198 293.822 24.6124C292.972 24.881 292.225 25.0463 291.582 25.1083C291.042 24.3024 290.451 23.1348 289.807 21.6055C289.186 20.0764 288.792 19.229 288.625 19.0638C288.377 18.7951 288.086 18.6194 287.754 18.5368C287.256 18.4334 285.058 18.3817 281.158 18.3817C280.577 18.3817 279.85 18.4231 278.98 18.5057C278.855 19.3118 278.793 19.973 278.793 20.4896L278.824 24.6434V33.7567L278.948 43.5831L278.917 47.6129C278.917 49.0388 279.042 50.1134 279.291 50.8367C279.622 50.9813 280.235 51.1156 281.127 51.2396C281.292 51.2603 282.06 51.4257 283.429 51.7356C284.051 51.8803 284.601 52.0456 285.078 52.2315C285.182 52.9755 285.234 53.4302 285.234 53.5954C285.234 53.7815 285.203 54.0501 285.141 54.4015C284.684 54.4221 284.311 54.4324 284.02 54.4324C281.884 54.4324 280.068 54.3601 278.575 54.2154C277.081 54.0501 274.374 53.9674 270.454 53.9674C269.832 53.9674 268.007 54.0914 264.978 54.3394C263.796 54.4221 263.028 54.4634 262.675 54.4634C262.655 54.1535 262.634 53.9158 262.613 53.7505L262.582 53.0376V52.7896C263.038 52.1903 263.899 51.746 265.164 51.4566C267.322 50.94 268.815 50.475 269.645 50.0618C269.853 49.6691 269.977 49.1525 270.019 48.5118C270.163 46.0319 270.236 42.0849 270.236 36.6706L270.081 24.9533C270.081 21.7295 270.019 19.7767 269.894 19.0947C269.853 18.9087 269.78 18.7744 269.676 18.6918C269.573 18.5885 269.428 18.5265 269.24 18.5057C268.597 18.4231 266.502 18.3817 262.956 18.3817C261.005 18.3817 259.699 18.5678 259.035 18.9398C258.142 19.4564 256.805 20.8616 255.021 23.1555C254.502 23.8167 254.119 24.1475 253.87 24.1475C252.915 23.6515 252.304 23.2485 252.034 22.9385C252.677 21.5952 253.569 18.9087 254.709 14.879C255.042 13.7011 255.28 12.9055 255.425 12.4922ZM290.368 54.3394L290.431 52.2315C290.824 52.1075 291.519 51.9526 292.515 51.7666C294.112 51.4566 295.076 51.1777 295.409 50.9297C295.762 50.6817 296.187 50.0824 296.685 49.1317L302.969 32.7338L310.344 13.4531C311.028 13.4737 311.682 13.4841 312.304 13.4841H313.704L313.985 14.042L319.398 26.8132C320.622 29.5204 321.722 32.1553 322.697 34.7177C323.672 37.2596 324.512 39.3364 325.217 40.9483C325.632 41.9196 326.203 43.3765 326.929 45.319C327.302 46.373 327.873 47.6955 328.639 49.2868C329.054 50.1547 329.366 50.661 329.573 50.8057C329.947 51.1156 330.548 51.3223 331.377 51.4257C332.229 51.5289 333.141 51.7666 334.116 52.1386C334.22 52.8205 334.272 53.3268 334.272 53.6575C334.272 53.8022 334.261 54.0295 334.241 54.3394C332.706 54.3394 331.015 54.2671 329.169 54.1225C327.323 53.9778 325.663 53.9055 324.19 53.9055C322.552 53.9055 321.369 53.9262 320.643 53.9674L315.354 54.2465L313.829 54.3084C313.829 53.5851 313.86 52.8929 313.922 52.2315L317.376 51.4876C318.413 51.219 319.015 51.0123 319.18 50.8676C319.388 50.661 319.492 50.4233 319.492 50.1547C319.492 49.8861 319.44 49.6071 319.336 49.3178L318.092 46.2799L315.634 40.2043L303.747 40.1734C303.312 41.1653 302.41 43.5935 301.041 47.4579C300.646 48.5531 300.449 49.2971 300.449 49.6898C300.449 50.227 300.595 50.6093 300.885 50.8367C301.362 51.2293 302.274 51.5083 303.623 51.6737C303.81 51.7149 304.547 51.8286 305.832 52.0146C305.853 52.7585 305.864 53.2751 305.864 53.5645C305.864 53.7918 305.843 54.0295 305.801 54.2775C304.515 54.2775 301.445 54.1018 296.591 53.7505L295.315 53.9674C293.78 54.2154 292.317 54.3394 290.928 54.3394H290.368ZM304.992 36.9186C309.847 36.9805 312.708 37.0116 313.58 37.0116L314.358 36.9805C313.736 35.1414 312.926 33.0025 311.931 30.564C310.935 28.1048 310.126 26.2346 309.504 24.9533L304.992 36.9186ZM335.268 54.6184L335.329 52.1386C335.827 52.0146 336.428 51.9009 337.134 51.7977C338.483 51.6116 339.582 51.343 340.432 50.9916C340.723 50.5164 340.909 50.0618 340.993 49.6277C341.158 48.4705 341.242 46.7656 341.242 44.5131L341.179 31.339C341.179 29.9751 341.106 26.4103 340.962 20.6446C340.92 19.0947 340.816 18.1337 340.65 17.7618C340.587 17.6378 340.484 17.5345 340.339 17.4519C340.007 17.2245 339.385 17.0902 338.473 17.0489C338.078 17.0282 337.062 16.9146 335.423 16.7079L335.329 14.507L342.299 14.3521L352.474 14.0111L353.688 13.9801C353.937 13.9594 354.186 13.9491 354.435 13.9491C354.642 13.9491 355.191 13.9594 356.083 13.9801H358.075C359.651 13.9594 361.363 14.1971 363.209 14.693C363.852 14.8584 364.702 15.2096 365.761 15.747C366.818 16.2636 367.731 16.9352 368.499 17.7618C369.286 18.5678 369.868 19.477 370.241 20.4896C370.614 21.5023 370.801 22.5768 370.801 23.7134C370.801 24.974 370.521 26.1106 369.96 27.1233C369.401 28.1152 368.55 29.0347 367.409 29.882C366.829 30.2954 365.491 30.9773 363.396 31.9279C366.528 32.6305 368.913 33.9221 370.552 35.8027C372.191 37.6626 373.01 39.7394 373.01 42.0332C373.01 43.3972 372.751 44.8231 372.232 46.311C371.859 47.4269 371.226 48.4602 370.335 49.4108C369.152 50.6713 367.897 51.622 366.569 52.2626C365.263 52.9032 363.448 53.4302 361.125 53.8434C359.963 54.0501 358.199 54.1535 355.834 54.1535L350.544 54.0295C348.304 54.0295 345.639 54.1328 342.548 54.3394C341.677 54.3808 339.25 54.4738 335.268 54.6184ZM349.767 31.091C350.597 31.215 351.572 31.2769 352.692 31.2769C355.804 31.2769 358.157 30.7086 359.755 29.5721C361.353 28.4148 362.151 26.4309 362.151 23.6204C362.151 21.6366 361.393 19.9833 359.88 18.6608C358.366 17.3382 356.083 16.6769 353.034 16.6769C352.163 16.6769 351.001 16.7906 349.549 17.0178C349.549 17.4932 349.57 18.1751 349.611 19.0638C349.715 20.8203 349.767 23.2795 349.767 26.4412L349.736 29.045C349.736 29.4997 349.746 30.1817 349.767 31.091ZM350.14 50.8367C351.488 51.3946 352.744 51.6737 353.906 51.6737C356.27 51.6737 358.199 51.3223 359.693 50.6196C361.186 49.8964 362.276 48.8942 362.96 47.6129C363.645 46.3316 363.986 44.7301 363.986 42.8081C363.986 40.8243 363.614 39.2331 362.867 38.0346C361.83 36.3813 360.574 35.2757 359.101 34.7177C357.629 34.1391 355.419 33.8498 352.474 33.8498C351.168 33.8498 350.265 33.9428 349.767 34.1287V37.9415L349.736 42.5292L349.829 49.6587C349.85 49.9894 349.954 50.3821 350.14 50.8367ZM377.615 51.7977C378.258 51.6116 379.16 51.436 380.322 51.2706C381.504 51.0847 382.199 50.9916 382.406 50.9916C383.216 50.971 383.756 50.8367 384.025 50.5887C384.149 50.0927 384.212 49.6794 384.212 49.3488L384.149 45.381L384.336 41.3513V38.7785L384.367 35.7406L384.305 32.5168L384.43 25.6043L384.461 22.4735V22.0396C384.315 19.8696 384.17 18.6814 384.025 18.4748C383.9 18.2474 383.31 17.9685 382.251 17.6378C382.148 17.5965 381.753 17.4415 381.069 17.1729C380.55 16.9662 380.084 16.8215 379.668 16.7389C378.942 16.5529 378.435 16.336 378.144 16.088C378.103 15.5506 378.082 15.1373 378.082 14.8481C378.082 14.6827 378.092 14.4347 378.113 14.1041C378.3 14.0007 378.496 13.9491 378.704 13.9491C379.202 13.9491 381.007 14.0317 384.118 14.1971L388.568 14.166L391.866 14.2281C393.297 14.2281 395.133 14.1351 397.374 13.9491C398.037 13.8871 398.421 13.8561 398.525 13.8561C398.835 13.8561 399.053 13.9388 399.178 14.1041C399.344 14.3314 399.427 14.7447 399.427 15.344C399.427 15.8193 399.313 16.1809 399.084 16.4289C398.961 16.5735 398.504 16.6975 397.716 16.8009L393.857 17.6999C393.753 17.7411 393.577 17.8239 393.328 17.9479C393.246 18.0925 393.183 18.2165 393.142 18.3198L393.11 19.1878L393.018 21.1406V21.6986L393.048 22.0396C393.048 22.1429 393.018 22.7111 392.955 23.7444C392.934 24.013 392.924 24.2818 392.924 24.5504C392.924 24.881 392.945 25.439 392.987 26.2243C393.048 27.4642 393.079 28.5491 393.079 29.4791C393.079 30.5537 393.048 31.7833 392.987 33.1678C392.966 33.6844 392.955 34.3561 392.955 35.1827L392.83 49.8757C392.83 50.4956 392.934 50.8987 393.142 51.0847L396.097 51.2086L397.933 51.1777L399.894 51.2396C403.233 51.2396 405.858 50.8573 407.766 50.0927C409.197 49.5141 410.13 48.9354 410.567 48.3568C411.271 47.7369 411.842 47.0652 412.277 46.342C412.734 45.6187 413.242 44.42 413.803 42.7462H414.798C415.296 42.7462 415.856 42.7875 416.478 42.8702V43.7382C416.478 45.2261 416.292 47.8299 415.918 51.5497C415.773 53.0376 415.628 53.9468 415.482 54.2775C415.005 54.3601 414.705 54.4015 414.58 54.4015H413.429L411.811 54.4324C411.624 54.4324 410.39 54.3498 408.108 54.1845C407.693 54.1638 405.713 54.0914 402.165 53.9674C398.618 53.8434 395.143 53.7815 391.742 53.7815L385.394 53.9674C382.946 54.0295 380.654 54.1431 378.517 54.3084H378.051C377.926 54.3084 377.73 54.2981 377.46 54.2775C377.418 54.0501 377.397 53.8538 377.397 53.6885C377.397 52.8205 377.47 52.1903 377.615 51.7977ZM417.971 14.2281C419.154 14.29 420.181 14.383 421.052 14.507C422.691 14.7344 424.589 14.8481 426.746 14.8481C427.493 14.8481 429.412 14.786 432.503 14.662C437.129 14.4761 441.308 14.383 445.042 14.383L450.674 14.321C451.939 14.321 453.806 14.4761 456.275 14.786C456.648 15.1993 456.834 15.7573 456.834 16.46V22.8454L456.897 24.1164C456.897 24.2404 456.887 24.4264 456.866 24.6744L455.59 24.7364C455.424 24.7364 455.072 24.7157 454.532 24.6744C454.345 24.261 454.096 23.6515 453.785 22.8454L452.541 20.6446C452.064 19.7147 451.4 18.7641 450.549 17.7928C450.031 17.6482 449.367 17.5655 448.558 17.5448C448.351 17.5242 447.718 17.4725 446.66 17.3898C444.731 17.2245 442.657 17.1418 440.437 17.1418C437.906 17.1418 435.645 17.1832 433.654 17.2658C433.592 17.7825 433.561 19.8181 433.561 23.3725L433.623 28.5801V32.4859C434.141 32.5479 434.588 32.5789 434.961 32.5789C438.674 32.5789 441.318 32.5065 442.895 32.3619C444.472 32.2172 445.447 32.0208 445.82 31.7729C446.193 31.5042 446.525 31.0496 446.816 30.409C447.003 29.9543 447.365 28.4355 447.905 25.8523L448.309 25.8212L450.113 25.8523C450.197 27.6915 450.239 29.0864 450.239 30.037C450.239 32.2069 450.218 33.6018 450.176 34.2218C450.155 34.8417 450.145 35.3274 450.145 35.6787C450.145 36.2366 450.176 37.1356 450.239 38.3755C450.301 39.5948 450.331 40.504 450.331 41.1033V41.7853H448.122C448.039 41.4546 447.884 40.7727 447.656 39.7394C447.241 37.8175 446.867 36.619 446.536 36.1436C446.287 35.7717 445.872 35.4926 445.291 35.3067C444.876 35.162 443.341 35.0897 440.686 35.0897C437.554 35.0897 435.199 35.1723 433.623 35.3377C433.602 35.875 433.592 36.2263 433.592 36.3916C433.592 38.8508 433.633 40.8967 433.716 42.5292L433.654 49.2248C433.654 50.0101 433.933 50.5473 434.494 50.8367C435.344 51.2706 437.948 51.4876 442.304 51.4876C445.188 51.4876 447.635 51.2706 449.647 50.8367C451.037 50.5267 452.261 49.8344 453.318 48.7598C454.729 47.3752 455.901 45.4327 456.834 42.9321C457.477 42.8702 458.007 42.8392 458.421 42.8392C458.649 42.8392 458.992 42.8495 459.449 42.8702C459.386 43.3868 459.334 43.8208 459.293 44.1721L459.106 45.1021L457.955 50.9607L457.395 54.4944C456.047 54.5564 454.978 54.5874 454.19 54.5874C453.029 54.5874 449.927 54.4841 444.886 54.2775C441.339 54.1328 437.066 54.0605 432.067 54.0605C429.578 54.0605 426.518 54.1638 422.888 54.3704H421.581L417.816 54.4944V52.3555C418.21 52.2523 418.998 52.1386 420.181 52.0146C422.339 51.7666 423.832 51.436 424.662 51.0227C424.89 50.4233 425.004 49.6691 425.004 48.7598C425.004 48.4085 424.993 47.8092 424.972 46.962L425.004 46.001L424.91 34.3148L424.941 30.812L424.786 25.8523L424.817 22.3495L424.537 18.5057C424.537 18.4025 424.516 18.1958 424.474 17.8858C424.267 17.6585 423.957 17.5138 423.541 17.4519C423.313 17.4105 423.002 17.3485 422.608 17.2658C421.426 17.0178 420.284 16.8732 419.185 16.8319C418.791 16.8112 418.335 16.7698 417.816 16.7079L417.971 14.2281Z" fill="white"/>
<path d="M49.5979 93.211L52.6161 93.9704C51.9833 96.4399 50.8425 98.3256 49.1933 99.628C47.5546 100.92 45.5477 101.565 43.1726 101.565C40.7144 101.565 38.7127 101.069 37.1673 100.077C35.6323 99.0747 34.4603 97.6282 33.6513 95.7372C32.8526 93.8464 32.4534 91.816 32.4534 89.6462C32.4534 87.28 32.9045 85.2187 33.8068 83.462C34.7196 81.6952 36.0109 80.3571 37.6807 79.4479C39.3609 78.5283 41.2071 78.0684 43.2192 78.0684C45.501 78.0684 47.4198 78.6471 48.9755 79.8043C50.5313 80.9616 51.6151 82.5889 52.2271 84.6865L49.2556 85.3839C48.7266 83.7308 47.9591 82.5269 46.953 81.7727C45.947 81.0184 44.6816 80.6413 43.157 80.6413C41.4041 80.6413 39.9366 81.0598 38.7542 81.8967C37.5822 82.7336 36.7576 83.8599 36.2805 85.2755C35.8034 86.6807 35.5649 88.1325 35.5649 89.6307C35.5649 91.5629 35.8449 93.2522 36.405 94.6989C36.9754 96.1351 37.857 97.2097 39.0498 97.9227C40.2426 98.6356 41.5338 98.9921 42.9236 98.9921C44.6142 98.9921 46.0455 98.5064 47.2176 97.5351C48.3896 96.5639 49.1829 95.1224 49.5979 93.211ZM59.7334 90.1112C59.7334 86.3397 60.7498 83.3897 62.7827 81.2612C64.8155 79.1223 67.4396 78.0529 70.6548 78.0529C72.7603 78.0529 74.6584 78.554 76.3489 79.5563C78.0395 80.5585 79.3257 81.9587 80.2072 83.7565C81.0992 85.5441 81.5452 87.5745 81.5452 89.8476C81.5452 92.1518 81.0785 94.2132 80.145 96.0317C79.2116 97.8503 77.8891 99.2293 76.1778 100.17C74.4664 101.1 72.6203 101.565 70.6393 101.565C68.4923 101.565 66.5736 101.048 64.8829 100.015C63.1923 98.9818 61.9114 97.5713 61.0402 95.7838C60.169 93.9962 59.7334 92.1054 59.7334 90.1112ZM62.8449 90.1576C62.8449 92.8957 63.5813 95.0553 65.054 96.6362C66.5372 98.2068 68.3938 98.9921 70.6237 98.9921C72.8951 98.9921 74.762 98.1964 76.2245 96.6052C77.6972 95.014 78.4336 92.7563 78.4336 89.8322C78.4336 87.9826 78.1173 86.3707 77.4846 84.9965C76.8623 83.6119 75.9444 82.5424 74.7309 81.7882C73.5278 81.0236 72.1743 80.6413 70.6703 80.6413C68.5338 80.6413 66.6928 81.3749 65.1474 82.8421C63.6124 84.299 62.8449 86.7375 62.8449 90.1576ZM88.8336 90.1112C88.8336 86.3397 89.8501 83.3897 91.8829 81.2612C93.9158 79.1223 96.5398 78.0529 99.7552 78.0529C101.86 78.0529 103.759 78.554 105.45 79.5563C107.14 80.5585 108.426 81.9587 109.308 83.7565C110.199 85.5441 110.645 87.5745 110.645 89.8476C110.645 92.1518 110.179 94.2132 109.245 96.0317C108.312 97.8503 106.989 99.2293 105.278 100.17C103.567 101.1 101.721 101.565 99.7393 101.565C97.5926 101.565 95.6738 101.048 93.9832 100.015C92.2926 98.9818 91.0117 97.5713 90.1404 95.7838C89.2692 93.9962 88.8336 92.1054 88.8336 90.1112ZM91.9451 90.1576C91.9451 92.8957 92.6815 95.0553 94.1544 96.6362C95.6375 98.2068 97.494 98.9921 99.7243 98.9921C101.996 98.9921 103.862 98.1964 105.325 96.6052C106.798 95.014 107.534 92.7563 107.534 89.8322C107.534 87.9826 107.218 86.3707 106.585 84.9965C105.962 83.6119 105.044 82.5424 103.832 81.7882C102.628 81.0236 101.275 80.6413 99.7702 80.6413C97.6341 80.6413 95.7931 81.3749 94.2477 82.8421C92.7127 84.299 91.9451 86.7375 91.9451 90.1576ZM118.727 101.177V78.4559H121.745V89.7236L133.071 78.4559H137.163L127.595 87.6623L137.583 101.177H133.601L125.479 89.6771L121.745 93.3039V101.177H118.727ZM144.919 101.177V78.4559H147.937V101.177H144.919ZM157.543 101.177V78.4559H160.639L172.619 96.2952V78.4559H175.512V101.177H172.416L160.437 83.3226V101.177H157.543ZM195.573 92.2655V89.5996L205.235 89.5842V98.0156C203.752 99.1935 202.222 100.082 200.645 100.681C199.068 101.271 197.45 101.565 195.791 101.565C193.551 101.565 191.513 101.089 189.677 100.139C187.852 99.1781 186.472 97.7934 185.539 95.9852C184.605 94.177 184.139 92.1569 184.139 89.9251C184.139 87.714 184.6 85.6526 185.523 83.7411C186.457 81.8192 187.794 80.3933 189.537 79.4633C191.279 78.5334 193.286 78.0684 195.558 78.0684C197.207 78.0684 198.695 78.3371 200.023 78.8743C201.36 79.4014 202.409 80.1401 203.166 81.0907C203.922 82.0413 204.499 83.2812 204.892 84.8105L202.17 85.5544C201.827 84.3971 201.402 83.4879 200.894 82.8266C200.386 82.1653 199.66 81.6384 198.716 81.2457C197.772 80.8427 196.724 80.6413 195.573 80.6413C194.194 80.6413 193.002 80.8531 191.995 81.2767C190.989 81.69 190.175 82.2376 189.552 82.9197C188.941 83.6015 188.463 84.3507 188.122 85.167C187.54 86.5722 187.25 88.0963 187.25 89.7392C187.25 91.7643 187.598 93.459 188.292 94.8229C188.998 96.1868 190.019 97.1994 191.358 97.8606C192.695 98.5219 194.116 98.8525 195.62 98.8525C196.927 98.8525 198.203 98.6045 199.448 98.1086C200.692 97.6023 201.636 97.065 202.278 96.4967V92.2655H195.573ZM231.153 101.177L225.102 78.4559H228.197L231.666 93.3504C232.04 94.9107 232.361 96.4606 232.631 98.0001C233.211 95.572 233.554 94.1719 233.658 93.7999L237.999 78.4559H241.639L244.906 89.9561C245.725 92.808 246.317 95.4893 246.679 98.0001C246.97 96.5639 247.348 94.9158 247.815 93.0559L251.394 78.4559H254.428L248.173 101.177H245.264L240.456 83.8651C240.052 82.4184 239.814 81.5298 239.741 81.1992C239.502 82.2429 239.279 83.1314 239.072 83.8651L234.233 101.177H231.153ZM262.074 101.177V78.4559H265.092V101.177H262.074ZM280.533 101.177V81.1372H273.018V78.4559H291.096V81.1372H283.551V101.177H280.533ZM298.602 101.177V78.4559H301.62V87.7863H313.475V78.4559H316.494V101.177H313.475V90.4676H301.62V101.177H298.602ZM338.881 101.177V78.4559H341.899V98.4961H353.131V101.177H338.881ZM360.124 90.1112C360.124 86.3397 361.141 83.3897 363.174 81.2612C365.206 79.1223 367.831 78.0529 371.046 78.0529C373.151 78.0529 375.049 78.554 376.74 79.5563C378.431 80.5585 379.716 81.9587 380.598 83.7565C381.49 85.5441 381.936 87.5745 381.936 89.8476C381.936 92.1518 381.47 94.2132 380.536 96.0317C379.603 97.8503 378.28 99.2293 376.569 100.17C374.857 101.1 373.011 101.565 371.03 101.565C368.883 101.565 366.964 101.048 365.274 100.015C363.583 98.9818 362.303 97.5713 361.431 95.7838C360.56 93.9962 360.124 92.1054 360.124 90.1112ZM363.236 90.1576C363.236 92.8957 363.972 95.0553 365.445 96.6362C366.928 98.2068 368.785 98.9921 371.015 98.9921C373.286 98.9921 375.153 98.1964 376.616 96.6052C378.088 95.014 378.824 92.7563 378.824 89.8322C378.824 87.9826 378.508 86.3707 377.875 84.9965C377.253 83.6119 376.335 82.5424 375.122 81.7882C373.918 81.0236 372.565 80.6413 371.062 80.6413C368.925 80.6413 367.084 81.3749 365.539 82.8421C364.003 84.299 363.236 86.7375 363.236 90.1576ZM396.661 101.177L387.824 78.4559H391.091L397.018 94.9623C397.496 96.2849 397.896 97.5248 398.217 98.6821C398.57 97.4422 398.979 96.2023 399.446 94.9623L405.606 78.4559H408.687L399.757 101.177H396.661ZM415.757 101.177V78.4559H432.249V81.1372H418.776V88.0963H431.394V90.7621H418.776V98.4961H432.778V101.177H415.757Z" fill="url(#paint0_radial_155_2385)"/>
<path d="M457.022 119.032H0V123H457.022V119.032Z" fill="white"/>
<defs>
<radialGradient id="paint0_radial_155_2385" cx="0" cy="0" r="1" gradientUnits="userSpaceOnUse" gradientTransform="translate(232.991 89.7702) rotate(90) scale(18.3508 374.021)">
<stop stop-color="#FAD9A7"/>
<stop offset="1" stop-color="#FA9800" stop-opacity="0"/>
</radialGradient>
</defs>
</svg>
